<svg xmlns="http://www.w3.org/2000/svg" viewBox="109 107 64 64">
  <path d="M126.8,136.17a.74.74,0,0,0-.72-.76h-8.33a.76.76,0,0,0,0,1.53h8.33A.74.74,0,0,0,126.8,136.17Z"></path>
  <path d="M127.41,133.65a.73.73,0,0,0,.7.62h.13a.75.75,0,0,0,.58-.75.85.85,0,0,0,0-.14l-.7-3.95a.71.71,0,0,0-.84-.61.75.75,0,0,0-.58.75.85.85,0,0,0,0,.14Z"></path>
  <path d="M128.25,147.71h-8.33a.76.76,0,0,0,0,1.53h8.33a.76.76,0,0,0,0-1.53Z"></path>
  <path d="M163.11,147.71h-7.61a.76.76,0,0,0,0,1.53h7.61a.76.76,0,0,0,0-1.53Z"></path>
  <path d="M154.16,150.89a.71.71,0,0,0-.84-.61.75.75,0,0,0-.58.75.84.84,0,0,0,0,.14l.77,4.36a.73.73,0,0,0,.7.62h.13a.75.75,0,0,0,.58-.75.84.84,0,0,0,0-.14Z"></path>
  <path d="M131.91,150.89a.72.72,0,0,0-.84-.61.75.75,0,0,0-.58.75.84.84,0,0,0,0,.14l.9,5.13a.73.73,0,0,0,.7.62h.13a.75.75,0,0,0,.58-.75.85.85,0,0,0,0-.14Z"></path>
  <path d="M150.5,147.71H133.26a.76.76,0,0,0,0,1.53H150.5a.76.76,0,0,0,0-1.53Z"></path>
  <path d="M131,145.56l-1.21-6.87a.72.72,0,0,0-.84-.61.76.76,0,0,0-.57.89l1.21,6.87a.73.73,0,0,0,.7.62h.13A.76.76,0,0,0,131,145.56Z"></path>
  <path d="M170,142.27a19.07,19.07,0,0,1-2.07,2l2,11.5a2.43,2.43,0,0,1-.4,1.95,2,2,0,0,1-1.63.74h-48.5a3.86,3.86,0,0,1-3.5-3.15L111.49,130a2.44,2.44,0,0,1,.4-1.95,2,2,0,0,1,1.63-.74H136.9a19.07,19.07,0,0,1,.29-2.52H113.51a4.29,4.29,0,0,0-3.45,1.65,5.1,5.1,0,0,0-.9,4h0l4.46,25.31a6.24,6.24,0,0,0,5.83,5.21H168a4.28,4.28,0,0,0,3.45-1.66,5.09,5.09,0,0,0,.9-4Z"></path>
  <path d="M138.26,135.41h-7.17a.76.76,0,0,0,0,1.53H139C138.71,136.44,138.47,135.93,138.26,135.41Z"></path>
  <path d="M161.35,129.67a.89.89,0,0,0-.58-.64l-4.35-1.45,3.09-6.17a.89.89,0,0,0-1.42-1l-8.86,8.86a.89.89,0,0,0,.35,1.47l4.35,1.45-3.09,6.17a.89.89,0,0,0,1.42,1l8.86-8.86A.89.89,0,0,0,161.35,129.67Z"></path>
  <path d="M151.19,115.29a15.17,15.17,0,0,0-9.74,8.28l-.24-.89a.89.89,0,0,0-1.71.47l1,3.62h0a.89.89,0,0,0,1.14.61l3.36-1.15a.89.89,0,0,0-.57-1.68l-1.71.58A13.34,13.34,0,0,1,168,126.36a.89.89,0,1,0,1.71-.47A15.15,15.15,0,0,0,151.19,115.29Z"></path>
  <path d="M168.72,132.38l-3.36,1.15a.89.89,0,0,0,.57,1.68l1.71-.58a13.34,13.34,0,0,1-25.35-1.22.89.89,0,1,0-1.71.47,15.11,15.11,0,0,0,28.31,2.33l.24.89a.89.89,0,0,0,1.71-.47l-1-3.62A.89.89,0,0,0,168.72,132.38Z"></path>
</svg>
